<?xml version="1.0" standalone="no"?>
<!DOCTYPE svg PUBLIC "-//W3C//DTD SVG 20010904//EN"
 "http://www.w3.org/TR/2001/REC-SVG-20010904/DTD/svg10.dtd">
<svg version="1.0" xmlns="http://www.w3.org/2000/svg"
 width="300.000000pt" height="300.000000pt" viewBox="0 0 300.000000 300.000000"
 preserveAspectRatio="xMidYMid meet">

<g transform="translate(0.000000,300.000000) scale(0.100000,-0.100000)"
fill="#000000" stroke="none">
<path d="M1665 2598 c-43 -25 -251 -26 -326 -3 -14 5 -19 1 -19 -12 0 -11 5
-24 11 -30 6 -6 9 -16 5 -21 -19 -31 -244 -44 -330 -18 l-47 14 3 -71 c3 -69
4 -72 33 -86 33 -16 210 -21 283 -8 32 5 43 4 41 -5 -8 -61 17 -77 136 -85 88
-6 215 11 227 30 4 7 8 24 8 40 0 27 1 27 43 20 117 -22 305 -3 308 31 7 96 9
136 7 136 -2 0 -21 -7 -43 -15 -25 -9 -80 -14 -145 -15 -144 0 -209 20 -180
55 6 8 10 23 8 34 -2 17 -6 18 -23 9z m-9 -113 c76 -32 24 -58 -126 -63 -122
-4 -197 8 -207 34 -8 21 0 26 65 41 68 15 219 9 268 -12z"/>
<path d="M742 1975 l3 -398 375 -83 c206 -46 376 -84 377 -84 2 0 3 179 3 398
l0 399 -347 77 c-192 42 -363 79 -381 83 l-32 6 2 -398z"/>
<path d="M760 1111 c0 -26 -5 -41 -16 -45 -19 -7 -16 -72 4 -68 9 1 12 -32 12
-141 0 -166 6 -181 77 -175 35 3 38 6 41 36 2 24 -1 32 -12 32 -14 0 -16 18
-16 120 0 100 3 120 15 120 11 0 15 11 15 40 0 29 -4 40 -15 40 -11 0 -15 11
-15 40 l0 40 -45 0 -45 0 0 -39z"/>
<path d="M2174 1129 c-10 -12 -29 -25 -41 -30 -18 -7 -23 -16 -23 -44 0 -37 8
-42 41 -25 18 10 19 6 19 -169 l0 -180 48 2 47 3 2 232 2 232 -38 0 c-26 0
-44 -7 -57 -21z"/>
<path d="M1414 1078 c-16 -4 -41 -19 -53 -32 -22 -23 -23 -33 -25 -160 -1
-122 1 -137 20 -163 40 -54 147 -56 185 -3 11 14 22 47 25 73 l7 48 -49 -3
-49 -3 -5 -40 c-3 -27 -10 -40 -20 -40 -11 0 -16 15 -18 63 l-3 64 68 -4 68
-3 3 45 c4 59 -5 104 -26 130 -21 26 -84 40 -128 28z m56 -113 c0 -38 -3 -45
-20 -45 -17 0 -20 7 -20 38 0 41 6 52 27 52 9 0 13 -14 13 -45z"/>
<path d="M1918 1080 c-47 -8 -76 -34 -83 -74 -9 -43 7 -79 51 -118 73 -64 84
-77 84 -103 0 -18 -5 -25 -19 -25 -15 0 -21 8 -23 33 -3 31 -5 32 -52 35 l-49
3 6 -47 c6 -61 39 -95 98 -101 63 -6 110 20 127 72 20 60 3 104 -61 159 -28
25 -55 46 -59 46 -5 0 -8 12 -8 26 0 33 33 30 38 -4 3 -19 9 -22 48 -22 43 0
44 1 44 33 0 64 -60 101 -142 87z"/>
<path d="M933 1043 c3 -21 13 -101 22 -178 22 -196 16 -180 74 -182 56 -3 54
-7 67 135 4 40 8 71 10 70 2 -2 8 -46 15 -98 7 -52 16 -98 21 -101 14 -9 88
-10 88 0 0 4 11 93 25 197 14 104 25 190 25 192 0 1 -20 2 -44 2 l-44 0 -7
-77 c-11 -116 -21 -130 -29 -43 -11 118 -12 120 -56 120 -43 0 -40 7 -57 -135
l-7 -60 -7 40 c-3 22 -10 66 -14 98 l-6 57 -41 0 -41 0 6 -37z"/>
<path d="M1630 880 l0 -200 45 0 45 0 0 159 0 159 35 6 c32 6 35 10 35 41 0
40 -20 47 -52 18 -17 -15 -18 -15 -18 0 0 13 -10 17 -45 17 l-45 0 0 -200z"/>
<path d="M880 435 c0 -52 2 -55 24 -55 32 0 56 25 56 59 0 35 -17 51 -52 51
-27 0 -28 -1 -28 -55z m55 0 c0 -20 -6 -31 -17 -33 -15 -3 -18 4 -18 33 0 29
3 36 18 33 11 -2 17 -13 17 -33z"/>
<path d="M1030 435 l0 -55 34 0 c19 0 38 5 41 10 4 6 -7 10 -24 10 -21 0 -31
5 -31 15 0 9 10 15 26 15 14 0 23 4 19 10 -3 6 -15 10 -26 10 -10 0 -19 5 -19
10 0 6 11 10 25 10 14 0 25 5 25 10 0 6 -16 10 -35 10 l-35 0 0 -55z"/>
<path d="M1170 482 c0 -24 33 -102 44 -102 12 0 51 98 42 107 -10 10 -24 -7
-31 -39 l-7 -33 -15 38 c-14 33 -33 50 -33 29z"/>
<path d="M1330 435 l0 -55 35 0 c19 0 35 5 35 10 0 6 -11 10 -25 10 -16 0 -25
6 -25 15 0 8 9 15 20 15 11 0 20 5 20 10 0 6 -9 10 -20 10 -11 0 -20 5 -20 10
0 6 11 10 25 10 14 0 25 5 25 10 0 6 -16 10 -35 10 l-35 0 0 -55z"/>
<path d="M1470 435 l0 -55 35 0 c19 0 35 5 35 10 0 6 -11 10 -25 10 -23 0 -25
4 -25 45 0 25 -4 45 -10 45 -5 0 -10 -25 -10 -55z"/>
<path d="M1605 467 c-20 -78 39 -118 79 -54 7 11 7 25 0 44 -7 22 -17 29 -41
31 -27 3 -33 -1 -38 -21z m58 -18 c8 -29 -2 -51 -22 -47 -10 2 -17 15 -19 36
-3 26 0 32 16 32 12 0 22 -9 25 -21z"/>
<path d="M1760 436 c0 -31 5 -56 10 -56 6 0 10 8 10 19 0 13 10 20 31 25 26 5
30 10 27 33 -3 24 -8 28 -40 31 l-38 3 0 -55z m60 19 c0 -8 -9 -15 -20 -15
-11 0 -20 7 -20 15 0 8 9 15 20 15 11 0 20 -7 20 -15z"/>
<path d="M1910 435 l0 -55 34 0 c19 0 38 5 41 10 4 6 -7 10 -24 10 -21 0 -31
5 -31 15 0 9 10 15 26 15 14 0 23 4 19 10 -3 6 -15 10 -26 10 -10 0 -19 5 -19
10 0 6 11 10 25 10 14 0 25 5 25 10 0 6 -16 10 -35 10 l-35 0 0 -55z"/>
<path d="M2050 435 c0 -30 5 -55 10 -55 6 0 10 9 10 20 0 26 15 25 34 -2 18
-25 33 -18 18 8 -7 12 -6 23 1 35 17 28 1 49 -38 49 l-35 0 0 -55z m60 20 c0
-8 -9 -15 -20 -15 -11 0 -20 7 -20 15 0 8 9 15 20 15 11 0 20 -7 20 -15z"/>
</g>
</svg>
